<?xml version="1.0" encoding="iso-8859-1"?>
<!-- Generator: Adobe Illustrator 19.0.0, SVG Export Plug-In . SVG Version: 6.00 Build 0)  -->
<svg version="1.1" id="Layer_1" xmlns="http://www.w3.org/2000/svg" xmlns:xlink="http://www.w3.org/1999/xlink" x="0px" y="0px"
	 viewBox="0 0 512 512" style="enable-background:new 0 0 512 512;" xml:space="preserve">
<g>
	<g>
		<path d="M486.881,102.614H289.67V84.443h0.534c4.427,0,8.017-3.589,8.017-8.017s-3.589-8.017-8.017-8.017h-68.409
			c-4.427,0-8.017,3.589-8.017,8.017s3.589,8.017,8.017,8.017h0.534v18.171H25.119C11.268,102.614,0,113.882,0,127.733v290.739
			c0,13.851,11.268,25.119,25.119,25.119h154.457v43.825h-34.741c-4.427,0-8.017,3.589-8.017,8.017c0,4.427,3.589,8.017,8.017,8.017
			h222.33c4.427,0,8.017-3.589,8.017-8.017c0-4.427-3.589-8.017-8.017-8.017h-34.739v-43.825h154.455
			c13.851,0,25.119-11.268,25.119-25.119V127.733C512,113.882,500.732,102.614,486.881,102.614z M289.67,152.852h172.092v202.414
			c-9.517-10.388-21.318-18.57-34.685-23.834c-0.336-0.133-0.589-0.37-0.589-0.553V221.261h0.534c4.427,0,8.017-3.589,8.017-8.017
			s-3.589-8.017-8.017-8.017h-68.409c-4.427,0-8.017,3.589-8.017,8.017s3.589,8.017,8.017,8.017h0.534V330.85
			c0,0.2-0.265,0.453-0.616,0.592c-0.31,0.122-0.617,0.258-0.927,0.384c-3.518-37.214-27.115-69.695-62.143-84.39
			c-3.519-1.476-5.792-4.778-5.792-8.411V152.852z M421.202,346.35c7.897,3.11,15.138,7.447,21.504,12.799h-86.169
			c0.569-3.232,0.966-6.499,1.222-9.785c2.174-1.105,4.398-2.116,6.654-3.006c6.542-2.579,10.769-8.666,10.769-15.509V221.261
			h35.273V330.88C410.455,337.706,414.673,343.779,421.202,346.35z M457.111,375.182c1.701,2.528,3.243,5.177,4.651,7.916v10.255
			H343.91c3.401-5.774,6.226-11.862,8.431-18.171H457.111z M170.489,171.023h-68.409c-4.427,0-8.017,3.589-8.017,8.017
			s3.589,8.017,8.017,8.017h0.534v148.115c0,2.167-0.777,4.267-2.186,5.912l-44.792,52.269h-5.398V152.852H222.33v86.165
			c0,3.636-2.294,6.949-5.841,8.44c-19.721,8.286-35.672,22.041-46.534,39.004v-99.404h0.534c4.427,0,8.017-3.589,8.017-8.017
			S174.916,171.023,170.489,171.023z M155.259,358.079c2.02,12.451,6.382,24.383,12.871,35.273H76.751l30.227-35.273H155.259z
			 M117.677,342.046c0.632-2.221,0.971-4.531,0.971-6.874V187.056h35.273v154.99H117.677z M171.779,323.875h168.438
			c1.194,5.724,1.83,11.624,1.83,17.637c0,18.712-6.142,36.977-17.365,51.841h-137.24c-9.483-12.456-15.339-27.012-16.977-42.33
			C169.471,341.733,169.968,332.599,171.779,323.875z M222.699,262.239c9.515-3.999,15.665-13.114,15.665-23.223V84.443h35.273
			v154.582c0,10.11,6.132,19.214,15.623,23.196c21.143,8.87,37.347,25.423,45.938,45.62H176.784
			C185.303,287.734,201.385,271.194,222.699,262.239z M316.393,487.415H195.61v-43.825h120.783V487.415z M495.967,418.472
			c0,5.01-4.076,9.086-9.086,9.086H25.119c-5.01,0-9.086-4.076-9.086-9.086V127.733c0-5.01,4.076-9.086,9.086-9.086H222.33v18.171
			H42.221c-4.427,0-8.017,3.589-8.017,8.017V401.37c0,4.427,3.589,8.017,8.017,8.017h427.557c4.427,0,8.017-3.589,8.017-8.017
			V144.835c0-4.427-3.589-8.017-8.017-8.017H289.67v-18.171h197.211c5.01,0,9.086,4.076,9.086,9.086V418.472z"/>
	</g>
</g>
<g>
	<g>
		<path d="M213.33,342.046h-0.086c-4.427,0-7.974,3.589-7.974,8.017s3.632,8.017,8.059,8.017s8.017-3.589,8.017-8.017
			S217.757,342.046,213.33,342.046z"/>
	</g>
</g>
<g>
	<g>
		<path d="M307.307,342.046h-0.086c-4.427,0-7.974,3.589-7.974,8.017s3.632,8.017,8.06,8.017s8.017-3.589,8.017-8.017
			S311.734,342.046,307.307,342.046z"/>
	</g>
</g>
<g>
	<g>
		<path d="M256.086,359.148H256c-4.427,0-7.974,3.589-7.974,8.017c0,4.427,3.632,8.017,8.059,8.017s8.017-3.589,8.017-8.017
			C264.102,362.738,260.513,359.148,256.086,359.148z"/>
	</g>
</g>
<g>
	<g>
		<path d="M264.637,8.551h-0.086c-4.427,0-7.974,3.589-7.974,8.017c0,4.427,3.632,8.017,8.059,8.017s8.017-3.589,8.017-8.017
			C272.653,12.141,269.064,8.551,264.637,8.551z"/>
	</g>
</g>
<g>
	<g>
		<path d="M238.983,34.205h-0.086c-4.427,0-7.974,3.589-7.974,8.017c0,4.427,3.632,8.017,8.059,8.017S247,46.649,247,42.221
			C247,37.794,243.411,34.205,238.983,34.205z"/>
	</g>
</g>
<g>
</g>
<g>
</g>
<g>
</g>
<g>
</g>
<g>
</g>
<g>
</g>
<g>
</g>
<g>
</g>
<g>
</g>
<g>
</g>
<g>
</g>
<g>
</g>
<g>
</g>
<g>
</g>
<g>
</g>
</svg>
