<?xml version="1.0" encoding="iso-8859-1"?>
<!-- Generator: Adobe Illustrator 19.0.0, SVG Export Plug-In . SVG Version: 6.00 Build 0)  -->
<svg version="1.1" id="Layer_1" xmlns="http://www.w3.org/2000/svg" xmlns:xlink="http://www.w3.org/1999/xlink" x="0px" y="0px"
	 viewBox="0 0 512 512" style="enable-background:new 0 0 512 512;" xml:space="preserve">
<g transform="translate(1 1)">
	<g>
		<path style="fill:#FFE100;" d="M412.57,152.6h-102.4c-14.507,0-25.6-11.093-25.6-25.6s11.093-25.6,25.6-25.6h102.4
			c14.507,0,25.6,11.093,25.6,25.6S427.076,152.6,412.57,152.6"/>
		<path style="fill:#FFE100;" d="M469.743,458.947L412.57,342.04v109.227c0,28.16-23.04,51.2-51.2,51.2h80.213
			C463.77,502.467,479.13,479.427,469.743,458.947"/>
		<path style="fill:#FFE100;" d="M361.37,502.467L361.37,502.467c28.16,0,51.2-23.04,51.2-51.2v-307.2h-102.4v307.2
			C310.17,479.427,333.21,502.467,361.37,502.467"/>
	</g>
	<g>
		<path style="fill:#FFA800;" d="M216.303,7.533H335.77c14.507,0,25.6,11.093,25.6,25.6s-11.093,25.6-25.6,25.6H216.303
			c-14.507,0-25.6-11.093-25.6-25.6S201.796,7.533,216.303,7.533"/>
		<path style="fill:#FFA800;" d="M395.503,144.067h-102.4c-14.507,0-25.6-11.093-25.6-25.6s11.093-25.6,25.6-25.6h102.4
			c14.507,0,25.6,11.093,25.6,25.6S410.01,144.067,395.503,144.067"/>
	</g>
	<path style="fill:#FFE100;" d="M369.903,144.067H284.57c-14.507,0-25.6-11.093-25.6-25.6s11.093-25.6,25.6-25.6h85.333
		c14.507,0,25.6,11.093,25.6,25.6S384.41,144.067,369.903,144.067"/>
	<path style="fill:#FFFFFF;" d="M165.103,7.533h102.4c14.507,0,25.6,11.093,25.6,25.6s-11.093,25.6-25.6,25.6h-102.4
		c-14.507,0-25.6-11.093-25.6-25.6S150.596,7.533,165.103,7.533"/>
	<path style="fill:#FFE100;" d="M190.703,7.533H310.17c14.507,0,25.6,11.093,25.6,25.6l0,0c0,14.507-11.093,25.6-25.6,25.6H190.703
		c-14.507,0-25.6-11.093-25.6-25.6l0,0C165.103,18.627,176.196,7.533,190.703,7.533"/>
	<path style="fill:#FFA800;" d="M344.303,502.467L344.303,502.467c28.16,0,51.2-23.04,51.2-51.2v-307.2h-102.4v307.2
		C293.103,479.427,316.143,502.467,344.303,502.467"/>
	<path style="fill:#FFE100;" d="M318.703,502.467L318.703,502.467c28.16,0,51.2-23.04,51.2-51.2v-307.2h-76.8v307.2
		C293.103,479.427,313.583,502.467,318.703,502.467"/>
	<path style="fill:#FFFFFF;" d="M293.103,451.267v-307.2c-14.507,0-25.6-11.093-25.6-25.6s11.093-25.6,25.6-25.6h34.133V58.733
		h-153.6V203.8L48.196,458.947c-9.387,20.48,5.973,43.52,29.013,43.52h267.093C316.143,502.467,293.103,479.427,293.103,451.267"/>
	<path style="fill:#FDCC00;" d="M284.57,451.267v-307.2c-14.507,0-25.6-11.093-25.6-25.6s11.093-25.6,25.6-25.6h34.133V58.733
		H199.236V203.8L73.796,458.947c-9.387,20.48,5.973,43.52,29.013,43.52h232.96C307.61,502.467,284.57,479.427,284.57,451.267"/>
	<path style="fill:#63D3FD;" d="M258.97,307.907c-23.04-23.04-79.36-41.813-102.4-18.773L73.796,458.947
		c-9.387,20.48,5.973,43.52,29.013,43.52h241.493c-28.16,0-51.2-23.04-51.2-51.2V335.213
		C281.156,327.533,269.21,318.147,258.97,307.907"/>
	<path style="fill:#3DB9F9;" d="M452.676,458.947L395.503,342.04v109.227c0,28.16-23.04,51.2-51.2,51.2h80.213
		C446.703,502.467,462.063,479.427,452.676,458.947"/>
	<path style="fill:#63D3FD;" d="M427.076,458.947L395.503,383v68.267c0,28.16-23.04,51.2-51.2,51.2h54.613
		C421.103,502.467,436.463,479.427,427.076,458.947"/>
	<path d="M335.77,67.267H165.103c-18.773,0-34.133-15.36-34.133-34.133S146.33-1,165.103-1H335.77
		c18.773,0,34.133,15.36,34.133,34.133S354.543,67.267,335.77,67.267z M165.103,16.067c-9.387,0-17.067,7.68-17.067,17.067
		s7.68,17.067,17.067,17.067H335.77c9.387,0,17.067-7.68,17.067-17.067s-7.68-17.067-17.067-17.067H165.103z"/>
	<path d="M395.503,152.6h-102.4c-18.773,0-34.133-15.36-34.133-34.133s15.36-34.133,34.133-34.133h102.4
		c18.773,0,34.133,15.36,34.133,34.133S414.276,152.6,395.503,152.6z M293.103,101.4c-9.387,0-17.067,7.68-17.067,17.067
		s7.68,17.067,17.067,17.067h102.4c9.387,0,17.067-7.68,17.067-17.067s-7.68-17.067-17.067-17.067H293.103z"/>
	<path d="M344.303,511c-33.28,0-59.733-26.453-59.733-59.733v-307.2c0-5.12,3.413-8.533,8.533-8.533h102.4
		c5.12,0,8.533,3.413,8.533,8.533v307.2C404.036,484.547,377.583,511,344.303,511z M301.636,152.6v298.667
		c0,23.893,18.773,42.667,42.667,42.667c23.893,0,42.667-18.773,42.667-42.667V152.6H301.636z"/>
	<path d="M344.303,511H77.21c-13.653,0-25.6-6.827-33.28-17.92s-8.533-25.6-2.56-37.547l123.733-253.44V58.733
		c0-5.12,3.413-8.533,8.533-8.533h153.6c5.12,0,8.533,3.413,8.533,8.533v34.133c0,5.12-3.413,8.533-8.533,8.533h-34.133
		c-9.387,0-17.067,7.68-17.067,17.067s7.68,17.067,17.067,17.067c5.12,0,8.533,3.413,8.533,8.533v307.2
		c0,23.893,18.773,42.667,42.667,42.667c5.12,0,8.533,3.413,8.533,8.533C352.836,507.587,349.423,511,344.303,511z M182.17,67.267
		V203.8c0,1.707,0,2.56-0.853,3.413L55.876,462.36c-3.413,6.827-2.56,14.507,1.707,21.333s11.093,10.24,19.627,10.24h226.133
		c-11.093-11.093-17.92-25.6-17.92-42.667v-299.52c-14.507-3.413-25.6-17.067-25.6-33.28c0-18.773,15.36-34.133,34.133-34.133h25.6
		V67.267H182.17z"/>
	<path d="M424.516,511h-80.213c-5.12,0-8.533-3.413-8.533-8.533c0-5.12,3.413-8.533,8.533-8.533
		c23.893,0,42.667-18.773,42.667-42.667V342.04c0-4.267,2.56-7.68,6.827-8.533c4.267-0.853,7.68,0.853,9.387,4.267l57.173,116.907
		l0,0c5.12,11.947,4.267,26.453-2.56,37.547C450.116,504.173,438.17,511,424.516,511z M386.116,493.933h38.4
		c7.68,0,14.507-3.413,18.773-10.24c4.267-6.827,5.12-14.507,1.707-21.333l-40.96-83.627v72.533
		C404.036,468.333,397.21,482.84,386.116,493.933z"/>
	<path d="M361.37,203.8h-34.133c-5.12,0-8.533-3.413-8.533-8.533c0-5.12,3.413-8.533,8.533-8.533h34.133
		c5.12,0,8.533,3.413,8.533,8.533C369.903,200.387,366.49,203.8,361.37,203.8z"/>
	<path d="M335.77,237.933h-8.533c-5.12,0-8.533-3.413-8.533-8.533c0-5.12,3.413-8.533,8.533-8.533h8.533
		c5.12,0,8.533,3.413,8.533,8.533C344.303,234.52,340.89,237.933,335.77,237.933z"/>
	<path d="M361.37,272.067h-34.133c-5.12,0-8.533-3.413-8.533-8.533c0-5.12,3.413-8.533,8.533-8.533h34.133
		c5.12,0,8.533,3.413,8.533,8.533C369.903,268.653,366.49,272.067,361.37,272.067z"/>
	<path d="M335.77,306.2h-8.533c-5.12,0-8.533-3.413-8.533-8.533s3.413-8.533,8.533-8.533h8.533c5.12,0,8.533,3.413,8.533,8.533
		S340.89,306.2,335.77,306.2z"/>
	<path d="M361.37,340.333h-34.133c-5.12,0-8.533-3.413-8.533-8.533s3.413-8.533,8.533-8.533h34.133c5.12,0,8.533,3.413,8.533,8.533
		S366.49,340.333,361.37,340.333z"/>
	<path d="M335.77,374.467h-8.533c-5.12,0-8.533-3.413-8.533-8.533s3.413-8.533,8.533-8.533h8.533c5.12,0,8.533,3.413,8.533,8.533
		S340.89,374.467,335.77,374.467z"/>
	<path d="M344.303,511H77.21c-13.653,0-25.6-6.827-33.28-17.92s-8.533-25.6-2.56-37.547l74.24-151.04
		c0-0.853,0.853-1.707,1.707-2.56c40.107-40.107,108.373-40.107,148.48,0c10.24,10.24,21.333,18.773,32.427,25.6
		c2.56,1.707,4.267,4.267,4.267,7.68v116.053c0,23.893,18.773,42.667,42.667,42.667c5.12,0,8.533,3.413,8.533,8.533
		C353.69,507.587,349.423,511,344.303,511z M129.263,313.027L55.876,462.36c-3.413,6.827-2.56,14.507,1.707,21.333
		s11.093,10.24,19.627,10.24h226.133c-11.093-11.093-17.92-25.6-17.92-42.667V339.48c-11.093-6.827-22.187-16.213-31.573-25.6
		C220.57,281.453,162.543,280.6,129.263,313.027z"/>
</g>
<g>
</g>
<g>
</g>
<g>
</g>
<g>
</g>
<g>
</g>
<g>
</g>
<g>
</g>
<g>
</g>
<g>
</g>
<g>
</g>
<g>
</g>
<g>
</g>
<g>
</g>
<g>
</g>
<g>
</g>
</svg>
